<svg xmlns="http://www.w3.org/2000/svg" fill="none" viewBox="0 0 128 128"><path fill="#847658" stroke="#fff" d="M51 68a6 6 0 0 0 5.3-2l38-39.8.4-.5-.5-.3a9 9 0 0 0-5.2-1.6H14.7a9 9 0 0 0-4.4 1.1l-.6.4.5.4L47.6 66a6 6 0 0 0 3.2 1.9h.3Zm0 0 .1-.6v.5ZM5.7 82.2c0 2.2.7 4.3 2.1 6l.3.4.4-.3L41 64l.4-.4-.4-.4L8 27.8l-.4-.5-1.4 5.8h-.5v49.2Zm0 0H6h-.5ZM117 57.1a29.9 29.9 0 0 1 0 41.7 28.6 28.6 0 0 1-40.8 0v-.1a29.5 29.5 0 0 1-3.2-3.8l-.2-.3H14.7C8 94.6 2.6 89.1 2.6 82.3V33.1c0-6.8 5.4-12.4 12.1-12.4H89c6.7 0 12.1 5.6 12.1 12.4v15.7l.4.1c6 1 11.4 4 15.5 8.2ZM98.1 48V33.1c0-1.6-.3-3.1-1-4.5l-.4-.6-.5.5L63 63.4l-.4.4.5.3 5.6 4.1.5.4.3-.6a28.4 28.4 0 0 1 27.2-19.5h-.1 1.6V48Zm-87 42.1-.6.5 4.2.5v.5H71l-.3-.7a30.1 30.1 0 0 1-2.4-18.8v-.3l-.2-.2-7.3-5.4-.4-.2-.3.3-1.6 1.7a9.2 9.2 0 0 1-7.9 2.9 8.6 8.6 0 0 1-5.2-2.9l-1.7-1.8-.3-.3-.4.2-31.8 24Zm95.5 12.3c3.1-1.3 6-3.3 8.4-5.7a26.9 26.9 0 0 0-8.5-43.2 25.6 25.6 0 0 0-28.2 5.7 26.9 26.9 0 0 0 8.4 43.1 25.5 25.5 0 0 0 19.9 0Z"/><path fill="#847658" stroke="#fff" d="M110.7 67.2a1.5 1.5 0 0 0-2 .2l2-.2Zm0 0a1.5 1.5 0 0 1 .5 1.7l-.3.5-16.5 18.4A3.5 3.5 0 0 1 92 89h-.2c-.9 0-1.7-.3-2.3-.9l-.1-.1-7-7.4a1.5 1.5 0 0 1 2.2-2l6.9 7.2.3.4.4-.4 16.4-18.4 2.1-.2Z"/></svg>